<svg width="26" height="26" viewBox="0 0 26 26" fill="none" xmlns="http://www.w3.org/2000/svg">
<path d="M12.9993 4.33333C17.7779 4.33333 21.666 8.22141 21.666 13C21.666 17.7786 17.7779 21.6667 12.9993 21.6667C8.22077 21.6667 4.33268 17.7786 4.33268 13C4.33268 8.22141 8.22077 4.33333 12.9993 4.33333ZM12.9993 2.16666C7.0161 2.16666 2.16602 7.01675 2.16602 13C2.16602 18.9832 7.0161 23.8333 12.9993 23.8333C18.9826 23.8333 23.8327 18.9832 23.8327 13C23.8327 7.01675 18.9826 2.16666 12.9993 2.16666ZM18.416 11.9167H14.0827V7.58333H11.916V11.9167H7.58268V14.0833H11.916V18.4167H14.0827V14.0833H18.416V11.9167Z" />
</svg>
