<svg width="24" height="24" viewBox="0 0 24 24" fill="none" xmlns="http://www.w3.org/2000/svg">
<path fill-rule="evenodd" clip-rule="evenodd" d="M2 6.857C2 5.56884 2.51172 4.33345 3.42258 3.42258C4.33345 2.51172 5.56884 2 6.857 2H12C12.2652 2 12.5196 2.10536 12.7071 2.29289C12.8946 2.48043 13 2.73478 13 3C13 3.26522 12.8946 3.51957 12.7071 3.70711C12.5196 3.89464 12.2652 4 12 4H6.857C6.09928 4 5.37259 4.301 4.8368 4.8368C4.301 5.37259 4 6.09928 4 6.857V17.143C4 17.9007 4.301 18.6274 4.8368 19.1632C5.37259 19.699 6.09928 20 6.857 20H17.143C17.9007 20 18.6274 19.699 19.1632 19.1632C19.699 18.6274 20 17.9007 20 17.143V12C20 11.7348 20.1054 11.4804 20.2929 11.2929C20.4804 11.1054 20.7348 11 21 11C21.2652 11 21.5196 11.1054 21.7071 11.2929C21.8946 11.4804 22 11.7348 22 12V17.143C22 18.4312 21.4883 19.6666 20.5774 20.5774C19.6666 21.4883 18.4312 22 17.143 22H6.857C5.56884 22 4.33345 21.4883 3.42258 20.5774C2.51172 19.6666 2 18.4312 2 17.143V6.857Z" />
<path fill-rule="evenodd" clip-rule="evenodd" d="M15.1371 13.219L12.9321 14.549L11.8991 12.836L14.1041 11.506L14.1071 11.504C14.1916 11.4531 14.2695 11.392 14.3391 11.322L19.3491 6.286C19.3993 6.2354 19.4476 6.18303 19.4941 6.129C19.8251 5.743 20.3151 4.979 19.7221 4.383C19.2211 3.879 18.5031 4.355 18.0381 4.764C17.9134 4.87396 17.7932 4.98906 17.6781 5.109L17.6441 5.143L12.7041 10.108C12.5868 10.2246 12.4949 10.3642 12.4341 10.518L11.6101 12.591C11.5945 12.63 11.5915 12.6729 11.6017 12.7137C11.6118 12.7545 11.6346 12.791 11.6667 12.8181C11.6988 12.8453 11.7386 12.8616 11.7805 12.8648C11.8224 12.868 11.8632 12.8579 11.8991 12.836L12.9321 14.549C11.1271 15.637 8.97208 13.809 9.75208 11.851L10.5771 9.779C10.7377 9.37409 10.9793 9.00625 11.2871 8.698L16.2261 3.732L16.2551 3.703C16.4021 3.553 16.8961 3.047 17.4951 2.683C17.8221 2.486 18.3441 2.225 18.9891 2.175C19.7291 2.116 20.5191 2.349 21.1391 2.972C21.6136 3.44078 21.9121 4.05884 21.9841 4.722C22.0336 5.23889 21.9546 5.76002 21.7541 6.239C21.4641 6.956 20.9801 7.483 20.7671 7.696L15.7571 12.732C15.5704 12.9193 15.3637 13.0817 15.1371 13.219ZM19.5901 6.093C19.5901 6.093 19.5861 6.096 19.5771 6.099L19.5901 6.093Z"/>
</svg>
