<svg width="12" height="12" viewBox="0 0 12 12" fill="none" xmlns="http://www.w3.org/2000/svg">
<path d="M5.0575 10.9055C5.3605 11.1555 5.6765 11.384 6 11.607C6.3242 11.387 6.63866 11.1529 6.9425 10.9055C7.449 10.4896 7.92567 10.0387 8.369 9.556C9.391 8.4385 10.5 6.8185 10.5 5C10.5 4.40905 10.3836 3.82389 10.1575 3.27792C9.93131 2.73196 9.59984 2.23588 9.18198 1.81802C8.76412 1.40016 8.26804 1.06869 7.72208 0.842542C7.17611 0.616396 6.59095 0.5 6 0.5C5.40905 0.5 4.82389 0.616396 4.27792 0.842542C3.73196 1.06869 3.23588 1.40016 2.81802 1.81802C2.40016 2.23588 2.06869 2.73196 1.84254 3.27792C1.6164 3.82389 1.5 4.40905 1.5 5C1.5 6.8185 2.609 8.438 3.631 9.556C4.07431 10.0388 4.55098 10.4894 5.0575 10.9055ZM6 6.625C5.56902 6.625 5.1557 6.45379 4.85095 6.14905C4.54621 5.8443 4.375 5.43098 4.375 5C4.375 4.56902 4.54621 4.1557 4.85095 3.85095C5.1557 3.5462 5.56902 3.375 6 3.375C6.43098 3.375 6.8443 3.5462 7.14905 3.85095C7.45379 4.1557 7.625 4.56902 7.625 5C7.625 5.43098 7.45379 5.8443 7.14905 6.14905C6.8443 6.45379 6.43098 6.625 6 6.625Z" fill="#767676"/>
</svg>
