<svg width="10" height="10" viewBox="0 0 10 10" fill="none" xmlns="http://www.w3.org/2000/svg">
<path d="M4.12207 0.609786C4.50107 -0.0851551 5.49893 -0.0851551 5.87793 0.609786L6.64188 2.01058C6.78571 2.27431 7.04047 2.45941 7.33574 2.5147L8.90405 2.80839C9.68209 2.95409 9.99045 3.90311 9.44664 4.47831L8.35047 5.63774C8.1441 5.85602 8.04679 6.15552 8.08544 6.45342L8.29076 8.03573C8.39262 8.82071 7.58534 9.40724 6.87025 9.06779L5.42883 8.38356C5.15745 8.25474 4.84255 8.25474 4.57117 8.38356L3.12975 9.06779C2.41466 9.40724 1.60738 8.82071 1.70924 8.03573L1.91456 6.45342C1.95321 6.15552 1.8559 5.85602 1.64953 5.63774L0.553364 4.47831C0.00955296 3.90311 0.317907 2.95409 1.09595 2.80839L2.66426 2.5147C2.95953 2.45941 3.21429 2.27431 3.35812 2.01058L4.12207 0.609786Z" fill="#767676"/>
</svg>
