<svg width="30" height="30" viewBox="0 0 30 30" fill="none" xmlns="http://www.w3.org/2000/svg">
<g clip-path="url(#clip0_237_389)">
<path d="M8.375 15C8.38001 16.3853 8.5535 17.7649 8.89167 19.1083H14.2917V11.2083H8.81667C8.52894 12.4519 8.3808 13.7236 8.375 15Z" />
<path d="M15.708 11.2083V19.1083H21.108C21.4602 17.7666 21.6477 16.387 21.6663 15C21.6633 13.7239 21.5179 12.4522 21.233 11.2083H15.708Z" />
<path d="M15.0003 1.66666C12.3632 1.66666 9.78538 2.44864 7.59273 3.91373C5.40007 5.37881 3.69111 7.4612 2.68194 9.89754C1.67277 12.3339 1.40872 15.0148 1.92319 17.6012C2.43766 20.1876 3.70754 22.5634 5.57224 24.4281C7.43694 26.2928 9.81271 27.5627 12.3991 28.0771C14.9855 28.5916 17.6664 28.3276 20.1028 27.3184C22.5391 26.3092 24.6215 24.6003 26.0866 22.4076C27.5517 20.2149 28.3337 17.6371 28.3337 15C28.3337 11.4638 26.9289 8.07238 24.4284 5.5719C21.9279 3.07141 18.5366 1.66666 15.0003 1.66666ZM25.1837 20.5917H22.167C21.5966 22.3773 20.7533 24.064 19.667 25.5917C18.865 25.9401 18.0264 26.1973 17.167 26.3583C18.7068 24.6856 19.8917 22.7182 20.6503 20.575H15.717V26.5333H14.3087V20.5917H9.35033C10.108 22.7378 11.293 24.7081 12.8337 26.3833C11.9919 26.224 11.1703 25.9725 10.3837 25.6333C9.29352 24.0928 8.45007 22.3919 7.88367 20.5917H4.817C4.55093 20.1059 4.31979 19.6019 4.12533 19.0833H7.45866C7.14632 17.7444 6.98421 16.3748 6.97533 15C6.97652 13.7256 7.11058 12.4549 7.37533 11.2083H3.967C4.14256 10.6913 4.35419 10.1873 4.60033 9.69999H7.77533C8.37166 7.71609 9.29551 5.84586 10.5087 4.16666C11.2786 3.8486 12.0804 3.61393 12.9003 3.46666C11.2419 5.24538 9.9907 7.3639 9.23367 9.67499H14.3087V3.33332H15.717V9.69999H20.792C20.0363 7.3926 18.7881 5.27709 17.1337 3.49999C17.9523 3.63651 18.7541 3.85999 19.5253 4.16666C20.7314 5.83373 21.6523 7.68953 22.2503 9.65832H25.392C25.6381 10.1457 25.8498 10.6497 26.0253 11.1667H22.642C22.9124 12.4265 23.0493 13.7114 23.0503 15C23.046 16.3829 22.8867 17.7609 22.5753 19.1083H25.9087C25.7023 19.6193 25.4601 20.115 25.1837 20.5917Z" />
</g>
<defs>
<clipPath id="clip0_237_389">
<rect width="30" height="30" fill="white"/>
</clipPath>
</defs>
</svg>
