<svg width="30" height="30" viewBox="0 0 30 30" fill="none" xmlns="http://www.w3.org/2000/svg">
<path d="M22.5 3.75C23.8261 3.75 25.0979 4.27678 26.0355 5.21447C26.9732 6.15215 27.5 7.42392 27.5 8.75V18.75C27.5 20.0761 26.9732 21.3479 26.0355 22.2855C25.0979 23.2232 23.8261 23.75 22.5 23.75H16.595L10.6425 27.3213C10.4632 27.4288 10.2599 27.4897 10.051 27.4984C9.84208 27.507 9.63436 27.4631 9.44682 27.3707C9.25928 27.2783 9.09792 27.1404 8.97749 26.9695C8.85707 26.7986 8.78143 26.6002 8.7575 26.3925L8.75 26.25V23.75H7.5C6.2172 23.75 4.98346 23.257 4.05399 22.3728C3.12451 21.4887 2.57039 20.2812 2.50625 19L2.5 18.75V8.75C2.5 7.42392 3.02678 6.15215 3.96447 5.21447C4.90215 4.27678 6.17392 3.75 7.5 3.75H22.5ZM17.5 15H10C9.66848 15 9.35054 15.1317 9.11612 15.3661C8.8817 15.6005 8.75 15.9185 8.75 16.25C8.75 16.5815 8.8817 16.8995 9.11612 17.1339C9.35054 17.3683 9.66848 17.5 10 17.5H17.5C17.8315 17.5 18.1495 17.3683 18.3839 17.1339C18.6183 16.8995 18.75 16.5815 18.75 16.25C18.75 15.9185 18.6183 15.6005 18.3839 15.3661C18.1495 15.1317 17.8315 15 17.5 15ZM20 10H10C9.66848 10 9.35054 10.1317 9.11612 10.3661C8.8817 10.6005 8.75 10.9185 8.75 11.25C8.75 11.5815 8.8817 11.8995 9.11612 12.1339C9.35054 12.3683 9.66848 12.5 10 12.5H20C20.3315 12.5 20.6495 12.3683 20.8839 12.1339C21.1183 11.8995 21.25 11.5815 21.25 11.25C21.25 10.9185 21.1183 10.6005 20.8839 10.3661C20.6495 10.1317 20.3315 10 20 10Z" />
</svg>
