<svg width="30" height="30" viewBox="0 0 30 30" fill="none" xmlns="http://www.w3.org/2000/svg">
<path d="M27.5 16.8475V22.5C27.5 23.4946 27.1049 24.4484 26.4017 25.1516C25.6984 25.8549 24.7446 26.25 23.75 26.25H6.25C5.25544 26.25 4.30161 25.8549 3.59835 25.1516C2.89509 24.4484 2.5 23.4946 2.5 22.5V16.8475L3.19125 17.1937C6.85491 19.039 10.9 20 15.0022 19.9996C19.1043 19.9991 23.1492 19.0373 26.8125 17.1912L27.5 16.8475ZM17.5 2.5C18.4946 2.5 19.4484 2.89509 20.1517 3.59835C20.8549 4.30161 21.25 5.25544 21.25 6.25V7.5H23.75C24.7446 7.5 25.6984 7.89509 26.4017 8.59835C27.1049 9.30161 27.5 10.2554 27.5 11.25V14.0525L25.6913 14.9575C22.455 16.5889 18.8884 17.458 15.2645 17.4983C11.6405 17.5386 8.05544 16.749 4.78375 15.19L3.975 14.79L2.5 14.0525V11.25C2.5 10.2554 2.89509 9.30161 3.59835 8.59835C4.30161 7.89509 5.25544 7.5 6.25 7.5H8.75V6.25C8.75 5.25544 9.14509 4.30161 9.84835 3.59835C10.5516 2.89509 11.5054 2.5 12.5 2.5H17.5ZM15 12.5C14.6685 12.5 14.3505 12.6317 14.1161 12.8661C13.8817 13.1005 13.75 13.4185 13.75 13.75C13.7492 13.9142 13.7807 14.0769 13.8428 14.2288C13.9048 14.3808 13.9962 14.5191 14.1117 14.6357C14.2272 14.7524 14.3645 14.8451 14.5159 14.9087C14.6672 14.9723 14.8296 15.0054 14.9938 15.0062C15.1579 15.0071 15.3206 14.9755 15.4726 14.9135C15.6246 14.8514 15.7628 14.76 15.8795 14.6446C15.9961 14.5291 16.0889 14.3917 16.1525 14.2404C16.216 14.089 16.2492 13.9267 16.25 13.7625C16.25 13.06 15.69 12.5 15 12.5ZM17.5 5H12.5C12.1685 5 11.8505 5.1317 11.6161 5.36612C11.3817 5.60054 11.25 5.91848 11.25 6.25V7.5H18.75V6.25C18.75 5.91848 18.6183 5.60054 18.3839 5.36612C18.1495 5.1317 17.8315 5 17.5 5Z" />
</svg>
