<svg width="20" height="20" viewBox="0 0 20 20" fill="none" xmlns="http://www.w3.org/2000/svg">
<path fill-rule="evenodd" clip-rule="evenodd" d="M17.4683 6.82173C17.3755 6.87744 15.1672 8.0531 15.1672 10.6598C15.2712 13.6326 17.954 14.6752 18 14.6752C17.954 14.7309 17.595 16.0954 16.5315 17.5257C15.6876 18.7578 14.7508 20 13.3284 20C11.9753 20 11.4896 19.1788 9.92837 19.1788C8.25175 19.1788 7.77735 20 6.49367 20C5.07122 20 4.06509 18.6912 3.17512 17.4707C2.0189 15.8732 1.03616 13.3664 1.00146 10.9593C0.978084 9.68384 1.23301 8.43004 1.88013 7.36507C2.79348 5.87831 4.4241 4.86905 6.20481 4.83577C7.56918 4.79164 8.78347 5.73434 9.61613 5.73434C10.4141 5.73434 11.9059 4.83577 13.5939 4.83577C14.3224 4.83649 16.2653 5.04703 17.4683 6.82173ZM9.50073 4.5811C9.25788 3.41629 9.92837 2.25148 10.5529 1.50846C11.3508 0.609897 12.6111 0 13.6979 0C13.7673 1.16481 13.3276 2.30719 12.5417 3.1392C11.8365 4.03777 10.6223 4.71422 9.50073 4.5811Z"/>
</svg>
