<svg width="20" height="20" viewBox="0 0 20 20" fill="none" xmlns="http://www.w3.org/2000/svg">
<path fill-rule="evenodd" clip-rule="evenodd" d="M19.6011 10.2281C19.6017 9.54218 19.541 8.85762 19.4197 8.18256H10V12.0505H15.382C15.2709 12.6625 15.0368 13.2456 14.6938 13.7644C14.3508 14.2833 13.9061 14.7271 13.3865 15.0691V17.5786H16.6185C18.5095 15.837 19.6006 13.2736 19.6006 10.2281H19.6011Z" fill="#3E82F1"/>
<path fill-rule="evenodd" clip-rule="evenodd" d="M9.99999 20C12.7 20 14.964 19.1045 16.6185 17.5776L13.3865 15.068C12.491 15.668 11.3455 16.0231 9.99999 16.0231C7.3955 16.0231 5.19044 14.2641 4.40449 11.9H1.06348V14.4944C1.8965 16.1501 3.17329 17.5418 4.75132 18.514C6.32935 19.4862 8.14652 20.0007 9.99999 20Z" fill="#32A753"/>
<path fill-rule="evenodd" clip-rule="evenodd" d="M4.40503 11.9006C3.9863 10.6685 3.9863 9.33265 4.40503 8.10059V5.50958H1.06346C0.364155 6.90347 0 8.4414 0 10.0009C0 11.5603 0.364155 13.0983 1.06346 14.4922L4.40503 11.9006Z" fill="#F9BB00"/>
<path d="M1.06348 5.50955L4.40505 8.10056C5.19157 5.73652 7.39606 3.97753 10.0006 3.97753C11.4691 3.97753 12.7871 4.48315 13.8236 5.47303L16.6921 2.60449C14.9601 0.991012 12.6966 6.14178e-07 9.99999 6.14178e-07C8.14603 -0.000649154 6.32841 0.514278 4.75027 1.48724C3.17213 2.46019 1.89564 3.85284 1.06348 5.50955Z" fill="#E74133"/>
</svg>
